Coordinates
version=1
nRows=22
nColumns=24
inDegrees=yes

Units are S.I. units (second, meters, Newtons, ...)
Angles are in degrees.

endheader
time	pelvis_tilt	pelvis_list	pelvis_rotation	pelvis_tx	pelvis_ty	pelvis_tz	hip_flexion_r	hip_adduction_r	hip_rotation_r	knee_angle_r	ankle_angle_r	subtalar_angle_r	mtp_angle_r	hip_flexion_l	hip_adduction_l	hip_rotation_l	knee_angle_l	ankle_angle_l	subtalar_angle_l	mtp_angle_l	lumbar_extension	lumbar_bending	lumbar_rotation
      0.75816667	      1.77512036	     -3.24732727	      7.08353891	     -0.50860304	      0.91393802	      0.32064547	      9.30150323	     10.82271301	     -1.32191644	    -19.59319320	      8.45940020	     -4.59562140	      2.95004377	     16.30367630	     -8.89699312	     -4.62662360	    -71.57428144	      0.11039581	     -6.72715369	      3.20664838	     -6.09246888	      5.62013952	     -0.68570332
      0.76233333	      1.79151873	     -3.05086113	      6.84522342	     -0.50328458	      0.91516300	      0.32103341	      8.60357703	     10.68406460	     -1.08068841	    -19.06440552	      8.49590144	     -4.40914549	      2.99876489	     16.78736565	     -8.62758664	     -4.89207142	    -70.99876038	      0.51860016	     -7.05338558	      3.12376808	     -6.14595784	      5.39176964	     -0.40643898
      0.76650000	      1.81859284	     -2.85346661	      6.59044107	     -0.49796914	      0.91637004	      0.32144324	      7.89248178	     10.54106406	     -0.83122270	    -18.52957854	      8.52532485	     -4.21856444	      3.05274837	     17.23597078	     -8.36548269	     -5.17903156	    -70.35680167	      0.91499149	     -7.33492707	      3.03614568	     -6.21137596	      5.16218043	     -0.12407850
      0.77066667	      1.85335527	     -2.65789658	      6.32180629	     -0.49266115	      0.91755171	      0.32186765	      7.17357603	     10.39436301	     -0.58146126	    -17.99006641	      8.54863229	     -4.02134237	      3.11026453	     17.65611747	     -8.11287665	     -5.48187258	    -69.65219298	      1.30072151	     -7.57188410	      2.94657921	     -6.28556389	      4.93262100	      0.16117103
      0.77483333	      1.89546387	     -2.46260693	      6.04027296	     -0.48735244	      0.91870228	      0.32230699	      6.44754746	     10.24334749	     -0.32782022	    -17.44892186	      8.56974190	     -3.82095432	      3.17016952	     18.04554059	     -7.86600990	     -5.79875869	    -68.88441370	      1.67319976	     -7.76373692	      2.85718396	     -6.36798435	      4.70595312	      0.44946957
      0.77900000	      1.94438902	     -2.27521619	      5.74713005	     -0.48206138	      0.91981333	      0.32275839	      5.71581424	     10.09464093	     -0.07226880	    -16.90164448	      8.58205957	     -3.60788370	      3.23863108	     18.41149736	     -7.63329256	     -6.12599692	    -68.06127838	      2.03613293	     -7.90710013	      2.75863825	     -6.45660791	      4.48525904	      0.75532865
      0.78316667	      1.99768287	     -2.08788121	      5.44108334	     -0.47676942	      0.92087940	      0.32322895	      4.98264116	      9.94057669	      0.18745251	    -16.35944260	      8.60104327	     -3.40250415	      3.30446945	     18.75126878	     -7.40898131	     -6.46843604	    -67.17951444	      2.38256798	     -8.00602002	      2.66733939	     -6.54578413	      4.26560356	      1.04795568
      0.78733333	      2.03396887	     -1.89800243	      5.10614096	     -0.47151582	      0.92186642	      0.32370919	      4.28954852	      9.77177503	      0.45116204	    -15.85343824	      8.58356648	     -3.18003028	      3.34997171	     19.08817834	     -7.18312590	     -6.83506588	    -66.24112055	      2.73534519	     -8.07073080	      2.60751917	     -6.62217531	      4.05023508	      1.27083576
      0.79150000	      2.10751059	     -1.72223517	      4.77823880	     -0.46624340	      0.92284966	      0.32418908	      3.54005171	      9.61607325	      0.71211250	    -15.30980832	      8.60175311	     -2.95675891	      3.40327546	     19.36944051	     -6.98129223	     -7.19713051	    -65.25018866	      3.05135409	     -8.09444488	      2.53941616	     -6.73493753	      3.84261022	      1.57536299
      0.79566667	      2.17103605	     -1.55751603	      4.44356204	     -0.46099554	      0.92374415	      0.32467969	      2.81135497	      9.46459704	      0.97042809	    -14.77623983	      8.61772045	     -2.73480365	      3.45897016	     19.65230103	     -6.79484310	     -7.56059720	    -64.21790074	      3.35370536	     -8.07705344	      2.47101789	     -6.83185210	      3.64339979	      1.88454251
      0.79983333	      2.25865053	     -1.41398668	      4.11617607	     -0.45574350	      0.92459783	      0.32516863	      2.04646429	      9.33175178	      1.22516793	    -14.21393873	      8.66516618	     -2.51495165	      3.53786019	     19.90047954	     -6.63791836	     -7.91664704	    -63.14814462	      3.63190155	     -8.02056947	      2.37487067	     -6.95579486	      3.45959903	      2.27764692
      0.80400000	      2.30104643	     -1.25680026	      3.74266308	     -0.45055160	      0.92533237	      0.32567953	      1.37360810	      9.16902692	      1.49720907	    -13.73406137	      8.65214416	     -2.29003530	      3.59194664	     20.17006455	     -6.46594861	     -8.30848048	    -62.01509504	      3.90469219	     -7.94261883	      2.31094324	     -7.03463888	      3.27684330	      2.52094144
      0.80816667	      2.39529731	     -1.13576266	      3.40504993	     -0.44532663	      0.92605356	      0.32615798	      0.61156385	      9.04411211	      1.74824113	    -13.17792660	      8.70639186	     -2.06394876	      3.67889760	     20.38371230	     -6.33577238	     -8.66382751	    -60.85884154	      4.14986271	     -7.83285242	      2.20956850	     -7.16322308	      3.12348504	      2.92392981
      0.81233333	      2.45387629	     -1.01742946	      3.03947402	     -0.44014962	      0.92665289	      0.32665491	     -0.08319627	      8.91063923	      2.02630204	    -12.67300873	      8.71092293	     -1.83104941	      3.78627837	     20.61926005	     -6.20770913	     -9.03026412	    -59.65602051	      4.38730876	     -7.69657413	      2.08435533	     -7.26515139	      2.98255576	      3.28567078
      0.81650000	      2.50148927	     -0.89056853	      2.65505638	     -0.43497632	      0.92717491	      0.32715984	     -0.74054752	      8.75758537	      2.28089458	    -12.22074075	      8.73898680	     -1.61357455	      3.84341356	     20.84125310	     -6.07844746	     -9.42850861	    -58.39579306	      4.57213616	     -7.55677147	      2.02069786	     -7.33266712	      2.82495429	      3.49807531
      0.82066667	      2.58690967	     -0.80738497	      2.30658871	     -0.42979276	      0.92765256	      0.32762598	     -1.46851679	      8.64849455	      2.52708435	    -11.69730672	      8.80938617	     -1.37756200	      3.93055880	     21.02764164	     -5.99293211	     -9.77843956	    -57.12377118	      4.75665111	     -7.38825523	      1.92535445	     -7.44852598	      2.71677595	      3.88236810
      0.82483333	      2.63654854	     -0.72156596	      1.93467966	     -0.42463873	      0.92801398	      0.32809837	     -2.12901360	      8.52540288	      2.78252084	    -11.22833825	      8.85830051	     -1.15401459	      4.01085479	     21.23344820	     -5.90447030	    -10.14495614	    -55.80570098	      4.90309521	     -7.21572361	      1.83815232	     -7.52214794	      2.60736528	      4.19198093
      0.82900000	      2.67239930	     -0.64378209	      1.54910357	     -0.41951278	      0.92828581	      0.32857021	     -2.75382724	      8.40098139	      3.04562629	    -10.79567697	      8.88865281	     -0.92047266	      4.07486058	     21.43689048	     -5.82492965	    -10.51339424	    -54.44364351	      5.01738249	     -7.03648764	      1.77027312	     -7.59203634	      2.51098250	      4.45611553
      0.83316667	      2.71072093	     -0.58623067	      1.17978106	     -0.41437740	      0.92847738	      0.32902162	     -3.38730332	      8.29360439	      3.29680695	    -10.34666448	      8.94796622	     -0.68687269	      4.13617347	     21.63218625	     -5.76674229	    -10.86643866	    -53.05987459	      5.10549260	     -6.86015267	      1.70728691	     -7.65780750	      2.43276782	      4.74495966
      0.83733333	      2.74476366	     -0.54546812	      0.81593871	     -0.40924500	      0.92858657	      0.32945188	     -4.01024735	      8.19723019	      3.54475235	     -9.90671858	      9.02118411	     -0.45440515	      4.19653845	     21.82224558	     -5.72320630	    -11.20576619	    -51.64805886	      5.16587185	     -6.68432703	      1.64690470	     -7.71595323	      2.37494557	      5.04154964
      0.84150000	      2.79684837	     -0.52846546	      0.47373250	     -0.40409391	      0.92863516	      0.32985496	     -4.66440685	      8.12255616	      3.77721335	     -9.44382995	      9.13304829	     -0.22090361	      4.29584836	     21.98676544	     -5.70028514	    -11.51748697	    -50.22019178	      5.21926897	     -6.51010747	      1.54977157	     -7.79508396	      2.35044143	      5.46526878
      0.84566667	      2.79071155	     -0.50452766	      0.10194870	     -0.39898347	      0.92854842	      0.33026321	     -5.20992249	      8.02917374	      4.01937210	     -9.06730478	      9.20112250	      0.00227148	      4.35778687	     22.19138198	     -5.67496618	    -11.85968151	    -48.74192452	      5.20869734	     -6.34549469	      1.49094122	     -7.80816448	      2.31244135	      5.68620422
